HIERARCHY
ROOT Hips
{
  OFFSET 1.73907 43.2358 0.0522707
  CHANNELS 6 Xposition Yposition Zposition Zrotation Xrotation Yrotation
  JOINT Bip01_Pelvis
  {
    OFFSET 0 0 0
    CHANNELS 6 Xposition Yposition Zposition Zrotation Xrotation Yrotation
    JOINT BN_Tail_01
    {
      OFFSET -2.28979 -2.39917 0
      CHANNELS 6 Xposition Yposition Zposition Zrotation Xrotation Yrotation
      JOINT BN_Tail_02
      {
        OFFSET 9.67405 0 0
        CHANNELS 6 Xposition Yposition Zposition Zrotation Xrotation Yrotation
        JOINT BN_Tail_03
        {
          OFFSET 10.5192 0 -1.14441e-005
          CHANNELS 6 Xposition Yposition Zposition Zrotation Xrotation Yrotation
          JOINT BN_Tail_04
          {
            OFFSET 8.16754 0 0
            CHANNELS 6 Xposition Yposition Zposition Zrotation Xrotation Yrotation
            End Site
            {
              OFFSET 0 0 0
            }
          }
        }
      }
    }
    JOINT Bip01_Spine
    {
      OFFSET 2.25317 -0.00479889 0
      CHANNELS 6 Xposition Yposition Zposition Zrotation Xrotation Yrotation
      JOINT Bip01_R_Thigh
      {
        OFFSET -2.32652 -0.461891 -2.25534
        CHANNELS 6 Xposition Yposition Zposition Zrotation Xrotation Yrotation
        JOINT Bip01_R_Calf
        {
          OFFSET 9.47902 0 0
          CHANNELS 6 Xposition Yposition Zposition Zrotation Xrotation Yrotation
          JOINT Bip01_R_Foot
          {
            OFFSET 8.42616 0 0
            CHANNELS 6 Xposition Yposition Zposition Zrotation Xrotation Yrotation
            JOINT Bip01_R_Toe1
            {
              OFFSET 1.4015 3.97627 -1.33795
              CHANNELS 6 Xposition Yposition Zposition Zrotation Xrotation Yrotation
              JOINT Bip01_R_Toe11
              {
                OFFSET 2.94553 0 0
                CHANNELS 6 Xposition Yposition Zposition Zrotation Xrotation Yrotation
                JOINT Bip01_R_Toe1Nub
                {
                  OFFSET 2.52656 0 0
                  CHANNELS 6 Xposition Yposition Zposition Zrotation Xrotation Yrotation
                  End Site
                  {
                    OFFSET 0 0 0
                  }
                }
              }
            }
            JOINT Bip01_R_Toe0
            {
              OFFSET 2.09729 6.93129 0.0277901
              CHANNELS 6 Xposition Yposition Zposition Zrotation Xrotation Yrotation
              JOINT Bip01_R_Toe01
              {
                OFFSET 3.0714 0 0
                CHANNELS 6 Xposition Yposition Zposition Zrotation Xrotation Yrotation
                JOINT Bip01_R_Toe0Nub
                {
                  OFFSET 3.37999 0 0
                  CHANNELS 6 Xposition Yposition Zposition Zrotation Xrotation Yrotation
                  End Site
                  {
                    OFFSET 0 0 0
                  }
                }
              }
            }
          }
        }
      }
      JOINT Bip01_L_Thigh
      {
        OFFSET -2.07803 -0.462101 2.48614
        CHANNELS 6 Xposition Yposition Zposition Zrotation Xrotation Yrotation
        JOINT Bip01_L_Calf
        {
          OFFSET 9.47902 0 0
          CHANNELS 6 Xposition Yposition Zposition Zrotation Xrotation Yrotation
          JOINT Bip01_L_Foot
          {
            OFFSET 8.42617 0 0
            CHANNELS 6 Xposition Yposition Zposition Zrotation Xrotation Yrotation
            JOINT Bip01_L_Toe1
            {
              OFFSET 1.40151 3.97627 1.33796
              CHANNELS 6 Xposition Yposition Zposition Zrotation Xrotation Yrotation
              JOINT Bip01_L_Toe11
              {
                OFFSET 2.94554 0 0
                CHANNELS 6 Xposition Yposition Zposition Zrotation Xrotation Yrotation
                JOINT Bip01_L_Toe1Nub
                {
                  OFFSET 2.52656 0 0
                  CHANNELS 6 Xposition Yposition Zposition Zrotation Xrotation Yrotation
                  End Site
                  {
                    OFFSET 0 0 0
                  }
                }
              }
            }
            JOINT Bip01_L_Toe0
            {
              OFFSET 2.0973 6.93128 -0.0277834
              CHANNELS 6 Xposition Yposition Zposition Zrotation Xrotation Yrotation
              JOINT Bip01_L_Toe01
              {
                OFFSET 3.07141 0 0
                CHANNELS 6 Xposition Yposition Zposition Zrotation Xrotation Yrotation
                JOINT Bip01_L_Toe0Nub
                {
                  OFFSET 3.37999 0 0
                  CHANNELS 6 Xposition Yposition Zposition Zrotation Xrotation Yrotation
                  End Site
                  {
                    OFFSET 0 0 0
                  }
                }
              }
            }
          }
        }
      }
      JOINT Bip01_Spine1
      {
        OFFSET 6.17162 -0.00484467 0
        CHANNELS 6 Xposition Yposition Zposition Zrotation Xrotation Yrotation
        JOINT BN_R_Clavicle_01
        {
          OFFSET 6.15897 -2.02444 -2.78435
          CHANNELS 6 Xposition Yposition Zposition Zrotation Xrotation Yrotation
          JOINT BN_R_UpperArm_01
          {
            OFFSET 3.43915 0 0
            CHANNELS 6 Xposition Yposition Zposition Zrotation Xrotation Yrotation
            JOINT BN_R__Forearm_01
            {
              OFFSET 10.2529 0 0
              CHANNELS 6 Xposition Yposition Zposition Zrotation Xrotation Yrotation
              JOINT BN_R_Hand_01
              {
                OFFSET 16.2051 0 0
                CHANNELS 6 Xposition Yposition Zposition Zrotation Xrotation Yrotation
                JOINT BN_R_Finger_07
                {
                  OFFSET 2.2539 2.19923 0.192043
                  CHANNELS 6 Xposition Yposition Zposition Zrotation Xrotation Yrotation
                  End Site
                  {
                    OFFSET 0 0 0
                  }
                }
                JOINT BN_R_Finger_01
                {
                  OFFSET 2.17806 -1.99631 -0.219296
                  CHANNELS 6 Xposition Yposition Zposition Zrotation Xrotation Yrotation
                  End Site
                  {
                    OFFSET 0 0 0
                  }
                }
                JOINT BN_R_Finger_05
                {
                  OFFSET 3.30715 1.42802 0.17391
                  CHANNELS 6 Xposition Yposition Zposition Zrotation Xrotation Yrotation
                  End Site
                  {
                    OFFSET 0 0 0
                  }
                }
                JOINT BN_R_Finger_03
                {
                  OFFSET 3.93641 -0.769831 0.580946
                  CHANNELS 6 Xposition Yposition Zposition Zrotation Xrotation Yrotation
                  End Site
                  {
                    OFFSET 0 0 0
                  }
                }
              }
            }
          }
        }
        JOINT BN_L_Clavicle_01
        {
          OFFSET 6.15897 -2.02445 2.78458
          CHANNELS 6 Xposition Yposition Zposition Zrotation Xrotation Yrotation
          JOINT BN_L_UpperArm_01
          {
            OFFSET 3.43915 0 0
            CHANNELS 6 Xposition Yposition Zposition Zrotation Xrotation Yrotation
            JOINT BN_L__Forearm_01
            {
              OFFSET 10.2529 0 0
              CHANNELS 6 Xposition Yposition Zposition Zrotation Xrotation Yrotation
              JOINT BN_L_Hand_01
              {
                OFFSET 16.2051 0 0
                CHANNELS 6 Xposition Yposition Zposition Zrotation Xrotation Yrotation
                JOINT BN_L_Finger_05
                {
                  OFFSET 3.30715 -1.42803 0.173891
                  CHANNELS 6 Xposition Yposition Zposition Zrotation Xrotation Yrotation
                  End Site
                  {
                    OFFSET 0 0 0
                  }
                }
                JOINT BN_L_Finger_07
                {
                  OFFSET 2.2539 -2.19925 0.19203
                  CHANNELS 6 Xposition Yposition Zposition Zrotation Xrotation Yrotation
                  End Site
                  {
                    OFFSET 0 0 0
                  }
                }
                JOINT BN_L_Finger_01
                {
                  OFFSET 2.17804 1.99629 -0.219303
                  CHANNELS 6 Xposition Yposition Zposition Zrotation Xrotation Yrotation
                  End Site
                  {
                    OFFSET 0 0 0
                  }
                }
                JOINT BN_L_Finger_03
                {
                  OFFSET 3.9364 0.769825 0.580943
                  CHANNELS 6 Xposition Yposition Zposition Zrotation Xrotation Yrotation
                  End Site
                  {
                    OFFSET 0 0 0
                  }
                }
              }
            }
          }
        }
        JOINT Bip01_Neck
        {
          OFFSET 7.02381 -0.81237 0
          CHANNELS 6 Xposition Yposition Zposition Zrotation Xrotation Yrotation
          JOINT Bip01_Head
          {
            OFFSET 1.54249 1.14441e-005 0
            CHANNELS 6 Xposition Yposition Zposition Zrotation Xrotation Yrotation
            JOINT BN_Mouth_01
            {
              OFFSET 2.32836 0.166542 0
              CHANNELS 6 Xposition Yposition Zposition Zrotation Xrotation Yrotation
              End Site
              {
                OFFSET 0 0 0
              }
            }
            JOINT BN_R_Ear_01
            {
              OFFSET 3.4208 -0.773972 -2.25959
              CHANNELS 6 Xposition Yposition Zposition Zrotation Xrotation Yrotation
              End Site
              {
                OFFSET 0 0 0
              }
            }
            JOINT BN_L_Ear_01
            {
              OFFSET 3.4208 -0.773976 2.25975
              CHANNELS 6 Xposition Yposition Zposition Zrotation Xrotation Yrotation
              End Site
              {
                OFFSET 0 0 0
              }
            }
            JOINT Bip01_HeadNub
            {
              OFFSET 6.74789 0 0
              CHANNELS 6 Xposition Yposition Zposition Zrotation Xrotation Yrotation
              End Site
              {
                OFFSET 0 0 0
              }
            }
          }
        }
      }
    }
  }
}
MOTION
Frames:	4
Frame Time:	0.0333333
39.1767 51.9437 -4.91072 134.341 -46.1038 177.857 0 0 0 -97.4765 -6.51047 -65.3837 -2.28979 -2.39919 -3.52118e-009 148.443 85.7951 1.73155 9.67406 -2.38419e-007 7.6294e-006 8.97321 16.2152 -36.8592 10.5192 5.96046e-008 -2.84217e-014 5.03161 17.4216 -25.044 8.16754 -2.86102e-006 -1.14441e-005 7.01096 23.9089 -22.1863 2.0393 -0.259058 0.93231 41.376 -4.1204 13.1563 -0.597614 1.77633 -3.41338 -140.612 22.2278 176.776 9.47902 -3.8147e-006 -9.53675e-007 -154.341 -3.85016e-006 -8.39428e-006 8.42616 3.8147e-006 -7.10543e-015 80.519 1.45135 6.86167 1.4015 3.97628 -1.33794 106.181 -29.2032 41.2637 2.94553 -3.55272e-015 7.10543e-015 -4.53628 -8.77827e-007 -2.70738e-007 2.52656 2.77112e-013 -7.6294e-006 6.89117e-007 4.9015e-006 2.94278e-007 2.0973 6.9313 0.0278102 97.0896 3.46962e-006 1.61178e-005 3.0714 7.6294e-006 -7.4607e-014 -6.01089 1.97176e-007 2.31206e-007 3.37999 -1.90735e-006 -3.55272e-015 -9.697e-006 -2.00488e-007 9.34203e-007 -1.67668 1.43506 1.19723 -171.19 25.6462 -158.363 9.47902 0 -9.53674e-007 -159.303 -9.76514e-006 -4.50561e-006 8.42617 -3.8147e-006 2.70006e-013 49.1287 -0.0322458 10.2063 1.40151 3.97627 1.33796 95.8953 36.1061 -35.693 2.94554 3.8147e-006 3.73035e-014 2.826 5.89905e-007 2.5093e-006 2.52656 -3.8147e-006 5.72205e-006 -179.96 -5.93487e-005 1.67014e-005 2.0973 6.93129 -0.0277862 84.4412 7.29172e-006 7.40154e-006 3.0714 1.52588e-005 3.05533e-013 7.02321 1.09879e-005 -1.62688e-006 3.38 -3.8147e-006 -2.84217e-014 179.96 -5.1089e-005 -3.06789e-005 6.1717 -0.00487518 -0.000147343 35.3286 -12.5863 14.2767 6.15899 -2.02445 -2.78435 178.932 -4.25994 77.7897 3.43915 1.90735e-006 3.55272e-015 -162.271 66.8035 -172.716 10.2529 3.8147e-006 4.61853e-013 -11.2168 1.50642 -0.552357 16.2051 1.42109e-014 -8.52652e-014 7.21806 -18.0072 -31.5556 2.25391 2.19923 0.192036 68.8732 0.512306 -18.6838 2.17805 -1.99631 -0.219307 -71.0444 -0.181691 7.61481 3.30715 1.42801 0.173895 22.0196 1.29866 -16.5259 3.9364 -0.769837 0.580926 -0.68333 0.523014 -0.459449 6.15897 -2.02445 2.78458 1.29162 6.64554 -102.246 3.43915 -1.90735e-006 3.8147e-006 -153.672 -63.6301 -124.692 10.2529 3.8147e-006 1.90735e-006 11.1958 -8.72091 -0.553231 16.2051 -1.90735e-006 1.90735e-006 -16.2584 6.39415 -14.9229 3.30715 -1.42802 0.17389 -21.9784 -1.16375 -32.1046 2.25391 -2.19923 0.192024 -67.8145 -1.09078 -36.1293 2.17805 1.99631 -0.219305 71.0446 0.182697 6.61524 3.93639 0.769833 0.580939 0.564089 -2.68117 -8.25313 7.02381 -0.81238 -3.87237e-009 10.998 -2.86875e-006 6.83561e-007 1.54247 -7.6294e-006 -2.4869e-014 -38.8591 18.8673 44.1993 2.10595 -0.356756 0.0332334 -95.1622 -0.0166168 -179.99 3.42081 -0.773966 -2.25959 138.139 0.715976 -173.848 3.42081 -0.77398 2.25975 -44.7854 6.97407 -38.2302 6.74791 -1.90735e-006 -5.96047e-008 -2.94819e-006 1.45356e-008 -2.8523e-008 
39.615 52.4161 -5.11838 133.233 -46.5366 178.593 0 0 0 -97.4883 -6.52762 -65.329 -2.28979 -2.39919 -3.24913e-009 158.131 85.2071 -8.65747 9.67406 -2.38419e-007 7.6294e-006 7.97224 15.0119 -40.889 10.5192 5.96046e-008 0 3.58777 16.7938 -29.5971 8.16754 -2.86102e-006 -1.14441e-005 4.54932 22.971 -26.0745 2.03847 -0.259544 0.935008 41.5131 -4.009 13.5115 -0.570496 1.77333 -3.42085 -144.14 20.7855 177.658 9.47902 -3.8147e-006 -9.53675e-007 -156.203 -3.5566e-006 -8.69989e-006 8.42616 3.8147e-006 -1.42109e-014 80.9173 1.34215 7.34767 1.4015 3.97628 -1.33794 106.985 -28.5821 41.6526 2.94553 -3.55272e-015 1.42109e-014 -3.95942 -1.00513e-006 1.6106e-006 2.52656 2.91323e-013 -7.6294e-006 6.89117e-007 4.9015e-006 2.94278e-007 2.0973 6.9313 0.0278103 98.5316 4.05462e-006 1.58722e-005 3.0714 7.6294e-006 -1.06581e-013 -3.31678 -4.64599e-007 1.02292e-005 3.37999 -1.90735e-006 0 -9.697e-006 -2.00488e-007 9.34203e-007 -1.67845 1.4413 1.18434 -174.229 24.5286 -157.712 9.47902 -7.10543e-015 -9.53674e-007 -160.69 -7.27879e-006 2.44773e-006 8.42617 -3.8147e-006 2.62901e-013 47.6634 -1.1674 9.70664 1.40151 3.97627 1.33796 96.8322 35.5549 -36.2415 2.94554 3.8147e-006 5.68434e-014 3.87899 4.43455e-007 5.98486e-007 2.52656 -3.8147e-006 5.72205e-006 -179.96 -5.93483e-005 1.67018e-005 2.0973 6.93129 -0.0277863 85.8079 7.33158e-006 7.86623e-006 3.0714 1.52588e-005 3.19744e-013 10.8104 1.31085e-005 7.38728e-006 3.38 -3.8147e-006 -1.42109e-014 179.96 -5.10889e-005 -3.06787e-005 6.1717 -0.00487518 -0.000147343 35.156 -12.0347 14.2259 6.15899 -2.02445 -2.78435 179.569 -1.31527 77.8167 3.43915 1.90735e-006 3.55272e-015 -155.371 57.6436 -170.013 10.2529 3.8147e-006 2.23821e-013 -11.0965 1.50498 -0.554123 16.2051 0 -1.35003e-013 17.1776 -13.6571 -24.0119 2.25391 2.19923 0.192036 68.8391 0.52138 -14.7778 2.17805 -1.99631 -0.219307 -71.0444 -0.181689 7.61482 3.30715 1.42801 0.173895 22.0172 1.30959 -8.11366 3.9364 -0.769837 0.580926 -0.796899 0.549598 10.158 6.15897 -2.02445 2.78458 1.29162 6.64554 -102.246 3.43915 -1.90735e-006 3.8147e-006 -159.087 -62.2766 -123.726 10.2529 3.8147e-006 1.90735e-006 12.3845 -8.72711 -0.373385 16.2051 -1.90735e-006 1.90735e-006 -24.0392 1.08248 -8.76087 3.30715 -1.42802 0.17389 -21.9669 -1.1931 -23.2316 2.25391 -2.19923 0.192024 -67.0899 -1.50102 -27.562 2.17805 1.99631 -0.219305 71.0446 0.182699 6.61524 3.93639 0.769833 0.580939 0.568181 -2.68506 1.79108 7.02381 -0.81238 -2.38491e-009 10.998 -9.84669e-007 1.05165e-005 1.54247 -7.6294e-006 -3.55271e-015 -37.0364 15.8692 45.9863 2.10595 -0.356756 0.0332334 -95.242 -0.0107269 -179.989 3.42081 -0.773966 -2.25959 139.645 0.988389 -171.922 3.42081 -0.77398 2.25975 -42.7405 6.83672 -40.5124 6.74791 -1.90735e-006 -5.96047e-008 -2.94819e-006 1.45357e-008 -2.85229e-008 
39.7748 52.9207 -5.33934 132.149 -47.3427 179.297 0 0 0 -97.4643 -6.48689 -65.4448 -2.28979 -2.39919 -2.94207e-009 166.046 84.6984 -17.0419 9.67406 -2.38419e-007 7.6294e-006 6.68904 13.7825 -44.4039 10.5192 5.96046e-008 7.10543e-015 2.00242 16.1311 -33.6528 8.16754 -2.86102e-006 -1.14441e-005 2.08878 22.2 -29.9018 2.04014 -0.258309 0.930478 41.0304 -3.92385 13.3852 -0.5932 1.75703 -3.42264 -146.085 18.8223 177.663 9.47902 -3.8147e-006 -9.53675e-007 -156.169 -3.53477e-006 -8.84908e-006 8.42616 3.8147e-006 1.42109e-014 79.5707 0.991305 7.56038 1.4015 3.97628 -1.33794 107.765 -27.9687 42.0221 2.94553 3.55272e-015 -7.10543e-015 -3.39375 -1.45916e-006 9.55111e-006 2.52656 3.19745e-013 -7.6294e-006 6.89117e-007 4.9015e-006 2.94278e-007 2.0973 6.9313 0.0278103 99.9457 4.55335e-006 1.56766e-005 3.0714 7.6294e-006 -1.13687e-013 -0.674967 -5.64409e-008 1.02616e-005 3.37999 -1.90735e-006 0 -9.697e-006 -2.00488e-007 9.34203e-007 -1.69147 1.43348 1.18434 -175.26 23.345 -158.143 9.47902 0 -9.53674e-007 -160.382 -6.78319e-006 3.63563e-006 8.42617 -3.8147e-006 2.62901e-013 45.2166 -2.18501 9.01732 1.40151 3.97627 1.33796 97.7385 35.0074 -36.765 2.94554 3.8147e-006 8.17124e-014 4.91153 3.79833e-007 3.9363e-007 2.52656 -3.8147e-006 5.72205e-006 -179.96 -5.93481e-005 1.67022e-005 2.0973 6.93129 -0.0277863 87.148 7.4872e-006 7.86333e-006 3.0714 1.52588e-005 3.19744e-013 14.5241 1.14139e-005 -3.24599e-006 3.38 -3.8147e-006 7.10543e-015 179.96 -5.1089e-005 -3.06785e-005 6.1717 -0.00487518 -0.000147343 35.0303 -11.3272 14.0643 6.15899 -2.02445 -2.78435 -179.762 1.78109 77.8179 3.43915 1.90735e-006 3.55272e-015 -150.322 50.0133 -168.677 10.2529 3.8147e-006 2.25598e-013 -11.0199 1.50466 -0.558307 16.2051 -7.10543e-015 -1.42109e-013 25.0019 -8.82176 -16.2213 2.25391 2.19923 0.192036 68.8052 0.528016 -10.9476 2.17805 -1.99631 -0.219307 -71.0444 -0.181691 7.61482 3.30715 1.42801 0.173895 22.0133 1.31959 0.135245 3.9364 -0.769837 0.580926 -0.937728 0.542185 20.5696 6.15897 -2.02445 2.78458 1.29162 6.64554 -102.246 3.43915 -1.90735e-006 3.8147e-006 -163.299 -61.1814 -122.773 10.2529 3.8147e-006 1.90735e-006 13.5479 -8.73053 -0.19714 16.2051 -1.90735e-006 1.90735e-006 -29.4112 -3.6418 -2.19322 3.30715 -1.42802 0.17389 -21.9783 -1.18275 -13.5754 2.25391 -2.19923 0.192025 -66.7069 -1.68915 -18.3037 2.17805 1.99631 -0.219305 71.0446 0.182698 6.61525 3.93639 0.769833 0.580939 0.572847 -2.68734 11.6403 7.02381 -0.81238 -5.65784e-010 10.998 -1.00221e-006 1.0541e-005 1.54247 -7.6294e-006 -3.55271e-015 -35.0606 12.1022 46.9229 2.10595 -0.356756 0.0332334 -95.3203 -0.00494385 -179.989 3.42081 -0.773966 -2.25959 141.381 1.14532 -170.615 3.42081 -0.77398 2.25975 -40.7428 6.62438 -42.7433 6.74791 -1.90735e-006 -5.96047e-008 -2.94819e-006 1.45358e-008 -2.85229e-008 
39.5124 53.4166 -5.61334 131.268 -48.5853 179.946 0 0 0 -97.3927 -6.39754 -65.7263 -2.28979 -2.39919 -2.61911e-009 172.198 84.2735 -23.5403 9.67406 -2.38419e-007 7.6294e-006 5.25683 12.5946 -47.2371 10.5192 5.96046e-008 -2.13163e-014 0.503083 15.5241 -36.9987 8.16754 -2.86102e-006 -1.14441e-005 -0.386951 21.2924 -32.8304 2.0452 -0.254572 0.92042 39.6193 -3.81659 12.6394 -0.681069 1.71672 -3.4198 -146.58 16.704 176.789 9.47902 -3.8147e-006 -9.53675e-007 -153.889 5.77231e-007 1.52842e-007 8.42616 3.8147e-006 0 76.2552 0.410456 7.5396 1.4015 3.97628 -1.33794 108.419 -27.4407 42.3257 2.94553 -3.55272e-015 7.10543e-015 -2.82249 -8.68105e-007 -4.38687e-007 2.52656 3.12639e-013 -7.6294e-006 6.89117e-007 4.9015e-006 2.94278e-007 2.0973 6.9313 0.0278103 101.161 3.95851e-006 1.57267e-005 3.0714 7.6294e-006 -1.24345e-013 1.58076 3.10923e-008 2.93359e-007 3.37999 -1.90735e-006 3.55272e-015 -9.697e-006 -2.00488e-007 9.34203e-007 -1.7194 1.40186 1.20238 -174.391 22.4241 -159.48 9.47902 0 -9.53674e-007 -158.184 -6.24623e-006 4.02328e-006 8.42617 -3.8147e-006 2.84217e-013 41.9901 -3.18208 8.31545 1.40151 3.97627 1.33796 98.4991 34.5369 -37.1987 2.94554 3.8147e-006 1.03029e-013 5.79727 1.36979e-006 1.02827e-005 2.52656 -3.8147e-006 5.72205e-006 -179.96 -5.93483e-005 1.67026e-005 2.0973 6.93129 -0.0277863 88.2975 7.76652e-006 7.4421e-006 3.0714 1.52588e-005 2.84217e-013 17.703 1.16526e-005 -3.29703e-006 3.38 -3.8147e-006 1.77636e-014 179.96 -5.10894e-005 -3.06782e-005 6.1717 -0.00487518 -0.000147343 35.1615 -10.5144 13.8681 6.15899 -2.02445 -2.78435 -179.1 4.84047 77.7796 3.43915 1.90735e-006 0 -149.447 45.0061 -168.418 10.2529 3.8147e-006 2.25598e-013 -10.8336 1.50236 -0.560673 16.2051 0 -1.45217e-013 29.8003 -4.21644 -8.49574 2.25391 2.19923 0.192036 68.7649 0.534083 -6.72933 2.17805 -1.99631 -0.219307 -71.0444 -0.181692 7.61481 3.30715 1.42801 0.173895 22.0177 1.29453 7.83561 3.9364 -0.769837 0.580926 -1.07129 0.501081 29.3952 6.15897 -2.02445 2.78458 1.29164 6.64554 -102.246 3.43915 -1.90735e-006 3.8147e-006 -166.399 -60.3418 -121.949 10.2529 3.8147e-006 1.90735e-006 14.5634 -8.73258 -0.041763 16.2051 -1.90735e-006 1.90735e-006 -31.6324 -6.80121 4.53325 3.30715 -1.42802 0.17389 -21.9913 -1.17459 -3.82363 2.25391 -2.19923 0.192025 -66.2946 -1.81398 -8.95186 2.17805 1.99631 -0.219305 71.0446 0.182698 6.61525 3.93639 0.769833 0.580939 0.569986 -2.60159 20.6477 7.02381 -0.81238 1.43276e-009 10.998 -1.00956e-006 1.05679e-005 1.54247 -7.6294e-006 -7.10543e-015 -33.0293 7.77833 46.5435 2.10595 -0.356756 0.0332334 -95.3993 0.000869746 -179.988 3.42081 -0.773966 -2.25959 143.13 1.34407 -169.3 3.42081 -0.77398 2.25975 -38.5501 6.4965 -44.1561 6.74791 -1.90735e-006 -5.96047e-008 -2.94819e-006 1.45358e-008 -2.8523e-008 
